<svg xmlns="http://www.w3.org/2000/svg" viewBox="0 0 774 465.5"><path d="M120.2 251l-85-73.2L53 157c10.7-12.4 26-14.3 39-3 9.3 8 11 18.6 7.5 30 12.7-8.2 26-7.7 37.5 2 12.2 10.6 15.8 27.3 4.2 40.8zm-34.5-54.3c12.5-14.5 12-28.2 1-37.6-9-7-19-9-31.2 5l-11 13 33.8 29zm50 27c6-7 9.2-21-3.2-31.8-10.3-9-26-10-37 2L83 209l37.2 32zm17-86.3c-13.8-21.5-29-50.7-3.4-67 27.8-18 49 15.2 59.2 31.2 25.8 40 19 57 4 66.8s-33.8 9.4-59.8-31zm56.3 25.8c12.6-8 14.8-23.4-7-57.4-22.7-35.2-37.3-38-49.4-30.3-13.6 8.8-14.2 25.2 6.7 57.7 22.7 35.3 38 37.6 49.7 30zm104.2-52.8h.3L292.2 12l8.2-2.3 22.8 111.5-9.4 2.7-31.3-50v59l-9.5 2-39.6-106 8.2-2.8 34 94.7h.2l1.5-65.4zm67.2-2.2l49.3.8v6.2l-56.7-1L374.7 2h7.3zM486 65.4L528 79l16-48 7 2.2L516 140l-7-2.2L526.3 85 484 71.4 466.8 124l-7-2.4 34.8-106.8 7 2.3zm119 129.4l-6.8-4.7 11-33-31.2-22-28 22-7-4.5 97-74.8zm-22.3-64.6l29 20L629 93.7zm166.7 69.5L729 174.5l-82.4 66.8-4.7-5.8 82-66.7-20.7-25 5-4 45.2 56z"/><g stroke="#000" stroke-width="30"><path fill="none" d="M15 376c-2.7 43 39 80.5 81.5 74 196 0 392 0 588 .4 40.7 2.3 76.5-33.8 74.5-74.3"/><path d="M386 450.2h288c0-160.6-129.7-290-287-290.7-157.3.7-285.5 130-285.5 290.7H386z"/></g><path fill="#fff" stroke="#fff" d="M161 294s19.4-40.3 76.3-81.4c50-36 130-46.7 130-46.7s-58.6 15-104 43c-61 37-102.3 85-102.3 85z"/></svg>