<?xml version="1.0" standalone="no"?>
<!DOCTYPE svg PUBLIC "-//W3C//DTD SVG 20010904//EN"
 "http://www.w3.org/TR/2001/REC-SVG-20010904/DTD/svg10.dtd">
<svg version="1.0" xmlns="http://www.w3.org/2000/svg"
 width="700.000000pt" height="700.000000pt" viewBox="0 0 700.000000 700.000000"
 preserveAspectRatio="xMidYMid meet">
<metadata>
Created by potrace 1.11, written by Peter Selinger 2001-2013
</metadata>
<g transform="translate(0.000000,700.000000) scale(0.100000,-0.100000)"
fill="#000000" stroke="none">
<path d="M3265 6989 c-616 -41 -1210 -245 -1720 -590 -201 -136 -335 -248
-516 -428 -299 -300 -506 -593 -688 -973 -249 -519 -367 -1120 -332 -1685 13
-213 22 -286 56 -468 105 -558 345 -1078 712 -1540 112 -141 387 -416 528
-528 133 -105 336 -245 462 -316 584 -331 1270 -492 1920 -452 213 13 286 22
468 56 558 105 1078 345 1540 712 141 112 416 387 528 528 105 133 245 336
316 462 331 584 492 1270 452 1920 -13 213 -22 286 -56 468 -105 558 -345
1078 -712 1540 -112 141 -387 416 -528 528 -133 105 -336 245 -462 316 -599
339 -1284 496 -1968 450z m525 -1665 c673 -107 1241 -586 1458 -1230 276 -817
-44 -1710 -776 -2164 -470 -291 -1042 -356 -1566 -179 -543 184 -971 612
-1155 1155 -226 668 -55 1400 443 1899 307 306 702 493 1130 535 116 11 344 3
466 -16z"/>
<path d="M3350 4969 c-322 -30 -644 -181 -878 -411 -411 -403 -552 -995 -368
-1537 146 -428 489 -771 917 -917 307 -104 651 -105 954 -2 415 142 754 470
910 883 98 261 117 585 50 861 -150 618 -667 1064 -1300 1124 -122 11 -160 11
-285 -1z m240 -1031 l0 -483 413 -244 c226 -134 414 -246 416 -247 6 -5 -132
-233 -138 -230 -139 81 -950 572 -960 581 -11 11 -12 106 -6 559 l8 546 133 0
134 0 0 -482z"/>
</g>
</svg>
